{
  "accessors": [
    {
      "bufferView": 1,
      "componentType": 5126,
      "count": 705,
      "max": [
        0.95662999153137207,
        1,
        0.91326999664306641
      ],
      "min": [
        -0.95662999153137207,
        -0.90625,
        -1
      ],
      "type": "VEC3"
    },
    {
      "bufferView": 1,
      "byteOffset": 8460,
      "componentType": 5126,
      "count": 705,
      "max": [
        0.93657243251800537,
        0.98465001583099365,
        0.99930298328399658
      ],
      "min": [
        -0.98541289567947388,
        -0.9371793270111084,
        -0.99432295560836792
      ],
      "type": "VEC3"
    },
    {
      "bufferView": 0,
      "componentType": 5125,
      "count": 813,
      "max": [
        704
      ],
      "min": [
        0
      ],
      "type": "SCALAR"
    },
    {
      "bufferView": 1,
      "byteOffset": 16920,
      "componentType": 5126,
      "count": 2357,
      "max": [
        1.1836299896240234,
        1,
        1.1540100574493408
      ],
      "min": [
        -1,
        -1.3423199653625488,
        -0.96794998645782471
      ],
      "type": "VEC3"
    },
    {
      "bufferView": 1,
      "byteOffset": 45204,
      "componentType": 5126,
      "count": 2357,
      "max": [
        0.99838811159133911,
        0.99012374877929688,
        0.99981987476348877
      ],
      "min": [
        -0.99297213554382324,
        -0.99930882453918457,
        -0.99983203411102295
      ],
      "type": "VEC3"
    },
    {
      "bufferView": 0,
      "byteOffset": 3252,
      "componentType": 5125,
      "count": 3333,
      "max": [
        2356
      ],
      "min": [
        0
      ],
      "type": "SCALAR"
    }
  ],
  "asset": {
    "extras": {
      "author": "Pika8000 (https://sketchfab.com/Pika8000)",
      "license": "CC-BY-4.0 (http://creativecommons.org/licenses/by/4.0/)",
      "source": "https://sketchfab.com/models/9bf9d6cac26242c785659d9fc15d5c21",
      "title": "Low Poly Planet"
    },
    "generator": "Sketchfab-3.18.7",
    "version": "2.0"
  },
  "bufferViews": [
    {
      "buffer": 0,
      "byteLength": 16584,
      "byteOffset": 0,
      "name": "floatBufferViews",
      "target": 34963
    },
    {
      "buffer": 0,
      "byteLength": 73488,
      "byteOffset": 16584,
      "byteStride": 12,
      "name": "floatBufferViews",
      "target": 34962
    }
  ],
  "buffers": [
    {
      "byteLength": 90072,
      "uri": "planet.bin"
    }
  ],
  "extensionsRequired": [
    "KHR_materials_pbrSpecularGlossiness"
  ],
  "extensionsUsed": [
    "KHR_materials_pbrSpecularGlossiness"
  ],
  "materials": [
    {
      "doubleSided": true,
      "emissiveFactor": [
        0,
        0,
        0
      ],
      "extensions": {
        "KHR_materials_pbrSpecularGlossiness": {
          "diffuseFactor": [
            1,
            1,
            1,
            1
          ],
          "glossinessFactor": 0.40000000000000002,
          "specularFactor": [
            0.050000000000000003,
            0.050000000000000003,
            0.050000000000000003
          ]
        }
      },
      "name": "Root"
    },
    {
      "doubleSided": true,
      "emissiveFactor": [
        0,
        0,
        0
      ],
      "extensions": {
        "KHR_materials_pbrSpecularGlossiness": {
          "diffuseFactor": [
            1,
            1,
            1,
            1
          ],
          "glossinessFactor": 0.79999999700000002,
          "specularFactor": [
            0.062067657700000001,
            0.079387195399999999,
            0.80000007149999997
          ]
        }
      },
      "name": "Water.001"
    }
  ],
  "meshes": [
    {
      "name": "Icosphere_0",
      "primitives": [
        {
          "attributes": {
            "NORMAL": 1,
            "POSITION": 0
          },
          "indices": 2,
          "material": 1,
          "mode": 4
        }
      ]
    },
    {
      "name": "Icosphere_7",
      "primitives": [
        {
          "attributes": {
            "NORMAL": 4,
            "POSITION": 3
          },
          "indices": 5,
          "material": 0,
          "mode": 4
        }
      ]
    }
  ],
  "nodes": [
    {
      "children": [
        1
      ],
      "name": "RootNode (gltf orientation matrix)",
      "rotation": [
        -0.70710678118654746,
        -0,
        -0,
        0.70710678118654757
      ]
    },
    {
      "children": [
        2
      ],
      "name": "RootNode (model correction matrix)"
    },
    {
      "children": [
        3,
        5
      ],
      "name": "Root"
    },
    {
      "children": [
        4
      ],
      "matrix": [
        -0.29086000000000006,
        0.95517000000000007,
        -0.05519000000000001,
        0,
        -0.77110000000000001,
        -0.19988000000000003,
        0.60452000000000006,
        0,
        0.56639000000000006,
        0.21839000000000003,
        0.7946700000000001,
        0,
        4.0762500000000008,
        1.00545,
        5.9038600000000008,
        1
      ],
      "name": "Lamp"
    },
    {
      "name": "Lamp"
    },
    {
      "children": [
        6,
        7
      ],
      "name": "Icosphere"
    },
    {
      "mesh": 0,
      "name": "Icosphere_0"
    },
    {
      "mesh": 1,
      "name": "Icosphere_7"
    }
  ],
  "scene": 0,
  "scenes": [
    {
      "name": "OSG_Scene",
      "nodes": [
        0
      ]
    }
  ]
}

